<svg width="25" height="25" viewBox="0 0 25 25" fill="none" xmlns="http://www.w3.org/2000/svg">
<path d="M12.5523 7.93303C9.75525 7.93303 7.49918 10.1368 7.49918 12.869C7.49918 15.6011 9.75525 17.8049 12.5523 17.8049C15.3493 17.8049 17.6053 15.6011 17.6053 12.869C17.6053 10.1368 15.3493 7.93303 12.5523 7.93303ZM12.5523 16.078C10.7448 16.078 9.26709 14.6389 9.26709 12.869C9.26709 11.0991 10.7404 9.65997 12.5523 9.65997C14.3641 9.65997 15.8374 11.0991 15.8374 12.869C15.8374 14.6389 14.3597 16.078 12.5523 16.078ZM18.9906 7.73113C18.9906 8.37121 18.4629 8.88242 17.812 8.88242C17.1568 8.88242 16.6334 8.36692 16.6334 7.73113C16.6334 7.09534 17.1611 6.57984 17.812 6.57984C18.4629 6.57984 18.9906 7.09534 18.9906 7.73113ZM22.3374 8.8996C22.2626 7.35739 21.902 5.99131 20.7454 4.8658C19.5931 3.74029 18.1946 3.38803 16.6158 3.3107C14.9886 3.22049 10.1115 3.22049 8.48429 3.3107C6.90987 3.38373 5.51137 3.73599 4.35475 4.8615C3.19813 5.98702 2.84191 7.35309 2.76275 8.8953C2.67039 10.4848 2.67039 15.2489 2.76275 16.8383C2.83751 18.3805 3.19813 19.7466 4.35475 20.8721C5.51137 21.9976 6.90548 22.3499 8.48429 22.4272C10.1115 22.5174 14.9886 22.5174 16.6158 22.4272C18.1946 22.3542 19.5931 22.0019 20.7454 20.8721C21.8976 19.7466 22.2582 18.3805 22.3374 16.8383C22.4297 15.2489 22.4297 10.4891 22.3374 8.8996ZM20.2352 18.5438C19.8922 19.3858 19.2281 20.0344 18.3617 20.3738C17.0644 20.8764 13.9859 20.7604 12.5523 20.7604C11.1186 20.7604 8.03571 20.8721 6.74276 20.3738C5.88079 20.0387 5.21672 19.3901 4.86929 18.5438C4.35475 17.2765 4.47349 14.2694 4.47349 12.869C4.47349 11.4685 4.35915 8.45713 4.86929 7.19415C5.21232 6.35216 5.87639 5.70349 6.74276 5.36412C8.04011 4.8615 11.1186 4.97749 12.5523 4.97749C13.9859 4.97749 17.0688 4.8658 18.3617 5.36412C19.2237 5.69919 19.8878 6.34787 20.2352 7.19415C20.7498 8.46142 20.631 11.4685 20.631 12.869C20.631 14.2694 20.7498 17.2808 20.2352 18.5438Z" fill="#121212"/>
</svg>
