<svg width="20" height="17" viewBox="0 0 20 17" fill="none" xmlns="http://www.w3.org/2000/svg">
<g clip-path="url(#clip0_131_2648)">
<path d="M13.043 1.85437V5.86607H17.9342" stroke="#121212" stroke-linecap="round" stroke-linejoin="round"/>
<path d="M18.7494 1.18567L13.043 5.86598" stroke="#121212" stroke-linecap="round" stroke-linejoin="round"/>
<path d="M17.9342 11.8301V13.8359C17.9351 14.0221 17.8886 14.2064 17.7977 14.3771C17.7067 14.5477 17.5733 14.7008 17.406 14.8267C17.2387 14.9526 17.0412 15.0484 16.8261 15.1081C16.6111 15.1677 16.3832 15.1899 16.1571 15.1731C13.6486 14.9496 11.239 14.2465 9.1219 13.1205C7.15224 12.0939 5.48232 10.7243 4.23071 9.1088C2.85301 7.36451 1.99564 5.37858 1.72805 3.3119C1.70768 3.127 1.73447 2.94065 1.80672 2.76472C1.87897 2.58878 1.99509 2.42711 2.14769 2.29C2.30029 2.15289 2.48603 2.04334 2.69308 1.96833C2.90013 1.89332 3.12395 1.85449 3.3503 1.85431H5.79589C6.19151 1.85112 6.57505 1.96602 6.87502 2.17761C7.17499 2.3892 7.37092 2.68303 7.42629 3.00433C7.52951 3.64625 7.72094 4.27653 7.99693 4.88314C8.10661 5.12246 8.13035 5.38254 8.06533 5.63258C8.00031 5.88262 7.84927 6.11213 7.63009 6.29392L6.59479 7.14306C7.75527 8.81698 9.44509 10.2029 11.486 11.1548L12.5213 10.3056C12.7429 10.1259 13.0228 10.002 13.3276 9.94864C13.6325 9.89531 13.9496 9.91478 14.2413 10.0047C14.981 10.2311 15.7494 10.3881 16.5321 10.4728C16.9281 10.5186 17.2897 10.6822 17.5482 10.9324C17.8068 11.1827 17.9441 11.5022 17.9342 11.8301Z" stroke="#121212" stroke-linecap="round" stroke-linejoin="round"/>
</g>
<defs>
<clipPath id="clip0_131_2648">
<rect width="19.5648" height="16.0468" fill="white" transform="translate(0 0.51709)"/>
</clipPath>
</defs>
</svg>
