<svg width="17" height="16" viewBox="0 0 17 16" fill="none" xmlns="http://www.w3.org/2000/svg">
<path fill-rule="evenodd" clip-rule="evenodd" d="M0 8C0 12.4112 3.8131 16 8.5 16C13.1869 16 17 12.4112 17 8C17 3.5888 13.1869 0 8.5 0C3.8131 0 0 3.5888 0 8ZM12.926 6.56569C13.258 6.25327 13.258 5.74673 12.926 5.43431C12.5941 5.1219 12.0559 5.1219 11.724 5.43431L7.65 9.26863L5.70104 7.43431C5.3691 7.12189 4.8309 7.12189 4.49896 7.43431C4.16701 7.74673 4.16701 8.25327 4.49896 8.56569L7.04896 10.9657C7.38091 11.2781 7.9191 11.2781 8.25104 10.9657L12.926 6.56569Z" fill="#3DAB25"/>
</svg>
