<svg width="122" height="25" viewBox="0 0 122 25" fill="none" xmlns="http://www.w3.org/2000/svg">
<path d="M15.5328 14.0744L16.0255 10.5895H12.9446V8.328C12.9446 7.37459 13.375 6.44526 14.7548 6.44526H16.1555V3.47823C16.1555 3.47823 14.8844 3.2428 13.6692 3.2428C11.132 3.2428 9.47353 4.91191 9.47353 7.93347V10.5895H6.6532V14.0744H9.47353V22.4989H12.9446V14.0744H15.5328Z" fill="#121212"/>
<path d="M59.5523 7.93303C56.7553 7.93303 54.4992 10.1368 54.4992 12.869C54.4992 15.6011 56.7553 17.8049 59.5523 17.8049C62.3493 17.8049 64.6053 15.6011 64.6053 12.869C64.6053 10.1368 62.3493 7.93303 59.5523 7.93303ZM59.5523 16.078C57.7448 16.078 56.2671 14.6389 56.2671 12.869C56.2671 11.0991 57.7404 9.65997 59.5523 9.65997C61.3641 9.65997 62.8374 11.0991 62.8374 12.869C62.8374 14.6389 61.3597 16.078 59.5523 16.078ZM65.9906 7.73113C65.9906 8.37121 65.4629 8.88242 64.812 8.88242C64.1568 8.88242 63.6334 8.36692 63.6334 7.73113C63.6334 7.09534 64.1611 6.57984 64.812 6.57984C65.4629 6.57984 65.9906 7.09534 65.9906 7.73113ZM69.3374 8.8996C69.2626 7.35739 68.902 5.99131 67.7454 4.8658C66.5931 3.74029 65.1946 3.38803 63.6158 3.3107C61.9886 3.22049 57.1115 3.22049 55.4843 3.3107C53.9099 3.38373 52.5114 3.73599 51.3548 4.8615C50.1981 5.98702 49.8419 7.35309 49.7627 8.8953C49.6704 10.4848 49.6704 15.2489 49.7627 16.8383C49.8375 18.3805 50.1981 19.7466 51.3548 20.8721C52.5114 21.9976 53.9055 22.3499 55.4843 22.4272C57.1115 22.5174 61.9886 22.5174 63.6158 22.4272C65.1946 22.3542 66.5931 22.0019 67.7454 20.8721C68.8976 19.7466 69.2582 18.3805 69.3374 16.8383C69.4297 15.2489 69.4297 10.4891 69.3374 8.8996ZM67.2352 18.5438C66.8922 19.3858 66.2281 20.0344 65.3617 20.3738C64.0644 20.8764 60.9859 20.7604 59.5523 20.7604C58.1186 20.7604 55.0357 20.8721 53.7428 20.3738C52.8808 20.0387 52.2167 19.3901 51.8693 18.5438C51.3548 17.2765 51.4735 14.2694 51.4735 12.869C51.4735 11.4685 51.3591 8.45713 51.8693 7.19415C52.2123 6.35216 52.8764 5.70349 53.7428 5.36412C55.0401 4.8615 58.1186 4.97749 59.5523 4.97749C60.9859 4.97749 64.0688 4.8658 65.3617 5.36412C66.2237 5.69919 66.8878 6.34787 67.2352 7.19415C67.7498 8.46142 67.631 11.4685 67.631 12.869C67.631 14.2694 67.7498 17.2808 67.2352 18.5438Z" fill="#121212"/>
<path d="M118.277 7.76849C118.051 6.93462 117.383 6.27788 116.535 6.05501C114.997 5.65002 108.833 5.65002 108.833 5.65002C108.833 5.65002 102.668 5.65002 101.131 6.05501C100.283 6.27792 99.6148 6.93462 99.3881 7.76849C98.9762 9.27994 98.9762 12.4334 98.9762 12.4334C98.9762 12.4334 98.9762 15.5869 99.3881 17.0984C99.6148 17.9322 100.283 18.5616 101.131 18.7845C102.668 19.1895 108.833 19.1895 108.833 19.1895C108.833 19.1895 114.997 19.1895 116.535 18.7845C117.383 18.5616 118.051 17.9322 118.277 17.0984C118.689 15.5869 118.689 12.4334 118.689 12.4334C118.689 12.4334 118.689 9.27994 118.277 7.76849ZM106.817 15.2966V9.5703L111.969 12.4335L106.817 15.2966Z" fill="#121212"/>
</svg>
