<svg width="220" height="25" viewBox="0 0 220 25" fill="none" xmlns="http://www.w3.org/2000/svg">
<path d="M15.5328 14.0744L16.0255 10.5895H12.9446V8.328C12.9446 7.37459 13.375 6.44526 14.7548 6.44526H16.1555V3.47823C16.1555 3.47823 14.8844 3.2428 13.6692 3.2428C11.132 3.2428 9.47353 4.91191 9.47353 7.93347V10.5895H6.6532V14.0744H9.47353V22.4989H12.9446V14.0744H15.5328Z" fill="#121212"/>
<path d="M59.5523 7.93303C56.7553 7.93303 54.4992 10.1368 54.4992 12.869C54.4992 15.6011 56.7553 17.8049 59.5523 17.8049C62.3493 17.8049 64.6053 15.6011 64.6053 12.869C64.6053 10.1368 62.3493 7.93303 59.5523 7.93303ZM59.5523 16.078C57.7448 16.078 56.2671 14.6389 56.2671 12.869C56.2671 11.0991 57.7404 9.65997 59.5523 9.65997C61.3641 9.65997 62.8374 11.0991 62.8374 12.869C62.8374 14.6389 61.3597 16.078 59.5523 16.078ZM65.9906 7.73113C65.9906 8.37121 65.4629 8.88242 64.812 8.88242C64.1568 8.88242 63.6334 8.36692 63.6334 7.73113C63.6334 7.09534 64.1611 6.57984 64.812 6.57984C65.4629 6.57984 65.9906 7.09534 65.9906 7.73113ZM69.3374 8.8996C69.2626 7.35739 68.902 5.99131 67.7454 4.8658C66.5931 3.74029 65.1946 3.38803 63.6158 3.3107C61.9886 3.22049 57.1115 3.22049 55.4843 3.3107C53.9099 3.38373 52.5114 3.73599 51.3548 4.8615C50.1981 5.98702 49.8419 7.35309 49.7627 8.8953C49.6704 10.4848 49.6704 15.2489 49.7627 16.8383C49.8375 18.3805 50.1981 19.7466 51.3548 20.8721C52.5114 21.9976 53.9055 22.3499 55.4843 22.4272C57.1115 22.5174 61.9886 22.5174 63.6158 22.4272C65.1946 22.3542 66.5931 22.0019 67.7454 20.8721C68.8976 19.7466 69.2582 18.3805 69.3374 16.8383C69.4297 15.2489 69.4297 10.4891 69.3374 8.8996ZM67.2352 18.5438C66.8922 19.3858 66.2281 20.0344 65.3617 20.3738C64.0644 20.8764 60.9859 20.7604 59.5523 20.7604C58.1186 20.7604 55.0357 20.8721 53.7428 20.3738C52.8808 20.0387 52.2167 19.3901 51.8693 18.5438C51.3548 17.2765 51.4735 14.2694 51.4735 12.869C51.4735 11.4685 51.3591 8.45713 51.8693 7.19415C52.2123 6.35216 52.8764 5.70349 53.7428 5.36412C55.0401 4.8615 58.1186 4.97749 59.5523 4.97749C60.9859 4.97749 64.0688 4.8658 65.3617 5.36412C66.2237 5.69919 66.8878 6.34787 67.2352 7.19415C67.7498 8.46142 67.631 11.4685 67.631 12.869C67.631 14.2694 67.7498 17.2808 67.2352 18.5438Z" fill="#121212"/>
<path d="M118.277 7.76849C118.051 6.93462 117.383 6.27788 116.535 6.05501C114.997 5.65002 108.833 5.65002 108.833 5.65002C108.833 5.65002 102.668 5.65002 101.131 6.05501C100.283 6.27792 99.6148 6.93462 99.3881 7.76849C98.9762 9.27994 98.9762 12.4334 98.9762 12.4334C98.9762 12.4334 98.9762 15.5869 99.3881 17.0984C99.6148 17.9322 100.283 18.5616 101.131 18.7845C102.668 19.1895 108.833 19.1895 108.833 19.1895C108.833 19.1895 114.997 19.1895 116.535 18.7845C117.383 18.5616 118.051 17.9322 118.277 17.0984C118.689 15.5869 118.689 12.4334 118.689 12.4334C118.689 12.4334 118.689 9.27994 118.277 7.76849ZM106.817 15.2966V9.5703L111.969 12.4335L106.817 15.2966Z" fill="#121212"/>
<path d="M165.946 9.54768C165.959 9.71873 165.959 9.88981 165.959 10.0609C165.959 15.2781 161.893 21.2896 154.463 21.2896C152.174 21.2896 150.048 20.642 148.259 19.5179C148.584 19.5546 148.897 19.5668 149.235 19.5668C151.124 19.5668 152.862 18.9437 154.251 17.8807C152.474 17.844 150.986 16.7077 150.473 15.1437C150.723 15.1803 150.973 15.2048 151.236 15.2048C151.599 15.2048 151.962 15.1559 152.299 15.0704C150.448 14.7038 149.06 13.1155 149.06 11.1972V11.1483C149.597 11.4416 150.223 11.6248 150.886 11.6492C149.798 10.9406 149.085 9.73095 149.085 8.36248C149.085 7.62939 149.285 6.95738 149.635 6.37089C151.624 8.76569 154.613 10.3296 157.966 10.5007C157.903 10.2075 157.866 9.90204 157.866 9.59657C157.866 7.42167 159.667 5.65002 161.906 5.65002C163.069 5.65002 164.12 6.12654 164.858 6.8963C165.771 6.72525 166.646 6.39534 167.422 5.94327C167.122 6.85967 166.484 7.62943 165.646 8.11813C166.459 8.03264 167.247 7.81266 167.972 7.50723C167.422 8.28918 166.734 8.9856 165.946 9.54768Z" fill="#121212"/>
<path d="M208.064 3.24292C204.011 3.24292 200.006 5.88187 200.006 10.1528C200.006 12.8689 201.57 14.4122 202.518 14.4122C202.909 14.4122 203.134 13.3473 203.134 13.0464C203.134 12.6876 202.198 11.9237 202.198 10.4306C202.198 7.32866 204.616 5.12954 207.744 5.12954C210.433 5.12954 212.424 6.62263 212.424 9.36574C212.424 11.4144 211.583 15.2571 208.858 15.2571C207.874 15.2571 207.033 14.5626 207.033 13.5672C207.033 12.1089 208.076 10.6968 208.076 9.19213C208.076 6.63806 204.367 7.10103 204.367 10.1875C204.367 10.8357 204.45 11.5533 204.746 12.1436C204.201 14.4353 203.087 17.8497 203.087 20.2109C203.087 20.9401 203.194 21.6577 203.265 22.3869C203.399 22.5335 203.332 22.5181 203.537 22.4447C205.528 19.7826 205.457 19.2618 206.357 15.7779C206.843 16.6807 208.099 17.1668 209.095 17.1668C213.289 17.1668 215.173 13.1737 215.173 9.57408C215.173 5.74298 211.784 3.24292 208.064 3.24292Z" fill="#121212"/>
</svg>
