<svg width="16" height="14" viewBox="0 0 16 14" fill="none" xmlns="http://www.w3.org/2000/svg">
<path fill-rule="evenodd" clip-rule="evenodd" d="M3.98753 8.42192L0.940777 6.28866C0.365727 5.8997 0.617942 5.1175 1.34768 5.02933L5.66896 4.86649L7.51434 0.953385C7.64297 0.736504 7.90443 0.599976 8.19111 0.599976C8.4778 0.599976 8.73926 0.737215 8.86789 0.953385L10.7133 4.86649L15.0345 5.02933C15.7643 5.1175 16.0165 5.8997 15.4414 6.28866L12.3947 8.42192L13.2262 12.5868C13.322 13.1549 12.6242 13.5801 12.0181 13.3234L8.19111 11.2663L4.36417 13.3227C3.75718 13.5794 3.06022 13.1542 3.15606 12.586L3.98753 8.42192Z" fill="#FABE3C"/>
</svg>
