<svg width="26" height="25" viewBox="0 0 26 25" fill="none" xmlns="http://www.w3.org/2000/svg">
<path d="M22.2774 7.76849C22.0507 6.93462 21.3827 6.27788 20.5346 6.05501C18.9972 5.65002 12.8328 5.65002 12.8328 5.65002C12.8328 5.65002 6.66833 5.65002 5.13097 6.05501C4.28283 6.27792 3.61484 6.93462 3.38812 7.76849C2.9762 9.27994 2.9762 12.4334 2.9762 12.4334C2.9762 12.4334 2.9762 15.5869 3.38812 17.0984C3.61484 17.9322 4.28283 18.5616 5.13097 18.7845C6.66833 19.1895 12.8328 19.1895 12.8328 19.1895C12.8328 19.1895 18.9972 19.1895 20.5346 18.7845C21.3827 18.5616 22.0507 17.9322 22.2774 17.0984C22.6893 15.5869 22.6893 12.4334 22.6893 12.4334C22.6893 12.4334 22.6893 9.27994 22.2774 7.76849ZM10.8166 15.2966V9.5703L15.9689 12.4335L10.8166 15.2966Z" fill="#121212"/>
</svg>
